Coordinates
version=1
nRows=8
nColumns=42
inDegrees=yes

Units are S.I. units (second, meters, Newtons, ...)
If the header above contains a line with 'inDegrees', this indicates whether rotational values are in degrees (yes) or radians (no).

endheader
time	pelvis_tilt	pelvis_list	pelvis_rotation	pelvis_tx	pelvis_ty	pelvis_tz	hip_flexion_r	hip_adduction_r	hip_rotation_r	knee_angle_r	knee_adduction_r	knee_angle_r_beta	ankle_angle_r	subtalar_angle_r	mtp_angle_r	hip_flexion_l	hip_adduction_l	hip_rotation_l	knee_angle_l	knee_adduction_l	knee_angle_l_beta	ankle_angle_l	subtalar_angle_l	mtp_angle_l	lumbar_extension	lumbar_bending	lumbar_rotation	arm_flex_r	arm_add_r	arm_rot_r	elbow_flex_r	pro_sup_r	wrist_flex_r	wrist_dev_r	arm_flex_l	arm_add_l	arm_rot_l	elbow_flex_l	pro_sup_l	wrist_flex_l	wrist_dev_l
      2.98000000	     21.83173509	      1.14443829	      4.22541650	      0.85474324	      0.94280452	     -0.54876734	      4.34565132	     -6.55499763	    -24.75654455	     54.10203172	    -13.69493008	      0.94425859	     13.10212734	     21.25285562	     -7.50180472	    -15.19166267	      6.45271557	     -1.62591291	     22.74219961	     -2.09387748	      0.39692626	     20.51557401	     -7.23265664	     -7.50180472	    -36.43120403	     -2.84666566	      2.94039993	     12.22504239	    -11.69027628	    -17.82654298	     31.28281453	     90.00000001	      0.00000000	      0.00000000	      1.64487462	    -21.50776578	      7.20248296	     69.05477126	     90.00000001	      0.00000000	      0.00000000
      2.99000000	     21.49124367	      1.20110592	      4.16369073	      0.85835110	      0.94229591	     -0.55010330	      5.35112291	     -6.39868249	    -24.39296733	     52.95214959	    -13.15429262	      0.92418936	     13.04366404	     21.15086018	     -7.50177931	    -15.06271533	      6.66590804	     -1.79803333	     22.78335880	     -2.18172895	      0.39764463	     20.61843446	     -7.06114098	     -7.50177931	    -36.18048584	     -2.97383363	      2.83292540	     11.81462047	    -11.72482557	    -17.82375061	     31.31292943	     90.00000001	      0.00000000	      0.00000000	      1.56988486	    -21.58554307	      7.13365663	     69.03812163	     90.00000001	      0.00000000	      0.00000000
      3.00000000	     21.63234946	      0.89605051	      3.89975903	      0.86230009	      0.94284613	     -0.55085784	      5.59822967	     -5.57562973	    -23.69672520	     51.04360663	    -12.71131457	      0.89087900	     12.69817107	     22.76547791	     -7.50174089	    -15.76190982	      6.45273163	     -1.92801055	     22.15025005	     -2.13221631	      0.38659479	     20.80994844	     -7.13731794	     -7.50174089	    -36.35737762	     -2.81013561	      3.09086543	     11.63416478	    -11.80905958	    -18.07834090	     30.82356737	     90.00000001	      0.00000000	      0.00000000	      1.54809818	    -21.48151914	      6.88151192	     68.69848997	     90.00000001	      0.00000000	      0.00000000
      3.01000000	     21.59007588	      0.80820703	      3.81263900	      0.86624624	      0.94291957	     -0.55198255	      6.04200023	     -5.11208447	    -23.55303132	     49.31001847	    -12.51244257	      0.86062218	     12.53870307	     24.05853340	     -7.50169272	    -16.16820542	      6.45411679	     -1.91500046	     21.75977616	     -2.10409745	      0.37977974	     20.82285187	     -7.07206533	     -7.50169272	    -36.36738189	     -2.77614912	      3.07203574	     11.31252359	    -11.81051393	    -18.47589224	     30.64411577	     90.00000001	      0.00000000	      0.00000000	      1.44371194	    -21.48415078	      6.69643575	     68.63904582	     90.00000001	      0.00000000	      0.00000000
      3.02000000	     21.44450576	      0.73161060	      3.62699691	      0.87006663	      0.94273090	     -0.55289985	      6.62778001	     -4.69411451	    -23.12491055	     47.73228184	    -12.05026658	      0.83308548	     12.35152471	     24.96699235	     -7.50165736	    -16.41608399	      6.53770224	     -2.10306046	     21.43591317	     -2.18868905	      0.37412726	     21.04397066	     -7.07577551	     -7.50165736	    -36.28282451	     -2.81994593	      3.16023263	     11.02892882	    -11.83907088	    -18.72482546	     30.42926775	     90.00000001	      0.00000000	      0.00000000	      1.38206458	    -21.47416425	      6.59563222	     68.58111967	     90.00000001	      0.00000000	      0.00000000
      3.03000000	     21.07154311	      0.84301333	      3.56057947	      0.87386153	      0.94197559	     -0.55411021	      7.52030264	     -4.66177332	    -22.93968963	     46.57986403	    -11.49109491	      0.81297199	     12.34821231	     24.79188244	     -7.50163599	    -16.26292374	      6.77706181	     -2.29163404	     21.48639121	     -2.22695435	      0.37500827	     21.11115841	     -6.88894334	     -7.50163599	    -35.96806652	     -2.99179714	      3.05595935	     10.57889680	    -11.87071238	    -18.75253266	     30.46829896	     90.00000001	      0.00000000	      0.00000000	      1.27431564	    -21.54405124	      6.54021800	     68.62263758	     90.00000001	      0.00000000	      0.00000000
      3.04000000	     21.24303575	      0.58853293	      3.35861018	      0.87791334	      0.94245907	     -0.55477715	      7.47057192	     -3.85278595	    -22.27866526	     44.43205523	    -11.10566217	      0.77548566	     12.05334241	     26.65121299	     -7.50160798	    -17.01512887	      6.60040767	     -2.42955762	     20.80812034	     -2.21002396	      0.36317021	     21.26572731	     -6.78931270	     -7.50160798	    -36.18710801	     -2.84628406	      3.22901726	     10.41489755	    -11.87384124	    -19.25247544	     29.98759058	     90.00000001	      0.00000000	      0.00000000	      1.23538788	    -21.44351807	      6.41604132	     68.50560728	     90.00000001	      0.00000000	      0.00000000
      3.05000000	     21.17794709	      0.53019257	      3.29102454	      0.88192055	      0.94230271	     -0.55576288	      7.78760428	     -3.46347743	    -22.29954925	     42.74532687	    -10.90564745	      0.74604669	     11.92786217	     27.80045176	     -7.50156246	    -17.36130730	      6.62416874	     -2.56966756	     20.48516633	     -2.24012194	      0.35753360	     21.40662921	     -6.51567402	     -7.50156246	    -36.17026016	     -2.83197238	      3.21909743	     10.13355005	    -11.84126731	    -19.87939231	     29.78555015	     90.00000001	      0.00000000	      0.00000000	      1.15826953	    -21.44377196	      6.34298111	     68.52601854	     90.00000001	      0.00000000	      0.00000000
